<?xml version="1.0" standalone="no"?>
<!DOCTYPE svg PUBLIC "-//W3C//DTD SVG 20010904//EN"
 "http://www.w3.org/TR/2001/REC-SVG-20010904/DTD/svg10.dtd">
<svg version="1.0" xmlns="http://www.w3.org/2000/svg"
 width="140.000000pt" height="140.000000pt" viewBox="0 0 140.000000 140.000000"
 preserveAspectRatio="xMidYMid meet">
<metadata>
Created by potrace 1.11, written by Peter Selinger 2001-2013
</metadata>
<g transform="translate(0.000000,140.000000) scale(0.100000,-0.100000)"
fill="#000000" stroke="none">
<path d="M795 1375 c-58 -17 -99 -40 -131 -75 -16 -16 -35 -30 -42 -30 -7 0
-11 -4 -8 -8 7 -12 -12 -38 -21 -28 -4 5 -2 11 5 13 6 3 9 9 6 15 -3 5 2 16
12 24 18 14 17 15 -6 8 -14 -4 -31 -15 -38 -25 -7 -11 -26 -26 -42 -34 -72
-37 -112 -103 -114 -186 -1 -48 3 -62 22 -82 l24 -25 -22 -30 c-30 -41 -30
-101 0 -146 28 -40 70 -57 126 -51 36 4 43 1 53 -21 6 -14 11 -43 11 -66 0
-34 -3 -39 -17 -33 -47 19 -70 22 -85 11 -47 -35 -91 -200 -92 -349 0 -59 -1
-107 -3 -107 -1 0 -8 21 -14 46 -7 28 -19 48 -29 51 -12 3 -15 12 -12 32 3 25
1 28 -21 28 -14 0 -40 11 -57 23 -27 20 -36 21 -52 11 -11 -7 -22 -10 -25 -7
-3 3 -27 -6 -53 -20 l-46 -25 23 -92 c18 -69 22 -96 14 -109 -23 -37 0 -55 42
-33 22 11 30 11 61 -6 68 -36 123 -22 155 39 20 36 20 36 21 10 0 -22 6 -29
27 -34 16 -3 45 -12 66 -18 78 -25 229 3 268 50 19 23 41 16 84 -26 24 -24 54
-42 75 -46 36 -7 138 9 179 29 37 18 120 159 121 204 0 30 -26 53 -61 53 -27
0 -40 14 -20 22 11 4 100 147 125 202 16 34 16 40 3 53 -24 24 -123 18 -237
-14 -55 -15 -72 -30 -100 -89 -8 -17 -21 -29 -28 -26 -16 5 -42 -16 -51 -41
-6 -15 -17 -8 -76 48 -54 52 -74 66 -92 62 -37 -7 -49 25 -21 57 l23 26 65
-23 c100 -35 191 -25 243 28 45 47 84 97 98 127 15 35 4 93 -24 121 -14 14
-22 37 -24 67 -2 25 -6 61 -9 80 l-5 35 30 -35 c17 -19 31 -45 31 -58 0 -21 2
-23 16 -11 46 38 57 122 23 178 -22 37 -22 39 7 44 10 1 28 8 39 15 18 10 17
11 -15 12 -26 0 -53 14 -110 56 -95 71 -130 87 -191 88 -42 1 -47 3 -32 14 9
6 27 12 40 12 28 0 31 19 3 22 -60 5 -79 4 -115 -7z m-244 -202 c-38 -47 -61
-112 -61 -169 0 -24 -4 -44 -8 -44 -5 0 -9 15 -9 33 0 17 -3 55 -7 82 -10 65
3 97 56 135 35 26 43 28 50 15 6 -10 0 -26 -21 -52z"/>
<path d="M88 79 c-14 -8 -15 -13 -6 -23 17 -17 60 -8 56 13 -4 19 -27 24 -50
10z"/>
</g>
</svg>
